<?xml version="1.0" encoding="UTF-8" standalone="no"?>
<!-- Created with Inkscape (http://www.inkscape.org/) -->

<svg
   xmlns:dc="http://purl.org/dc/elements/1.1/"
   xmlns:cc="http://creativecommons.org/ns#"
   xmlns:rdf="http://www.w3.org/1999/02/22-rdf-syntax-ns#"
   xmlns:svg="http://www.w3.org/2000/svg"
   xmlns="http://www.w3.org/2000/svg"
   xmlns:sodipodi="http://sodipodi.sourceforge.net/DTD/sodipodi-0.dtd"
   xmlns:inkscape="http://www.inkscape.org/namespaces/inkscape"
   width="297mm"
   height="210mm"
   viewBox="0 0 297 210"
   version="1.1"
   id="svg8"
   inkscape:version="0.92.4 (33fec40, 2019-01-16)"
   sodipodi:docname="Ponnu1.svg">
  <defs
     id="defs2">
    <inkscape:perspective
       sodipodi:type="inkscape:persp3d"
       inkscape:vp_x="0 : 105 : 1"
       inkscape:vp_y="0 : 1000 : 0"
       inkscape:vp_z="297 : 105 : 1"
       inkscape:persp3d-origin="148.5 : 70 : 1"
       id="perspective31" />
  </defs>
  <sodipodi:namedview
     id="base"
     pagecolor="#ffffff"
     bordercolor="#666666"
     borderopacity="1.0"
     inkscape:pageopacity="0.0"
     inkscape:pageshadow="2"
     inkscape:zoom="0.98994949"
     inkscape:cx="388.68934"
     inkscape:cy="395.0735"
     inkscape:document-units="mm"
     inkscape:current-layer="layer1"
     showgrid="false"
     inkscape:window-width="1920"
     inkscape:window-height="1012"
     inkscape:window-x="0"
     inkscape:window-y="32"
     inkscape:window-maximized="1" />
  <metadata
     id="metadata5">
    <rdf:RDF>
      <cc:Work
         rdf:about="">
        <dc:format>image/svg+xml</dc:format>
        <dc:type
           rdf:resource="http://purl.org/dc/dcmitype/StillImage" />
        <dc:title></dc:title>
      </cc:Work>
    </rdf:RDF>
  </metadata>
  <g
     inkscape:label="Layer 1"
     inkscape:groupmode="layer"
     id="layer1"
     transform="translate(0,-87)">
    <path
       style="fill:none;stroke:#000000;stroke-width:0.26458332px;stroke-linecap:butt;stroke-linejoin:miter;stroke-opacity:1"
       d="m 239.64054,274.3155 -1.20272,-3.04019 1.06908,-10.12283 -0.4009,-3.60814 -2.27179,-5.94675 -2.63929,-5.54584 -2.00452,-1.23612 -2.7061,-3.0736 -8.61945,-9.72193 -13.8646,-9.18739 -19.77795,-10.02261 -6.11379,-3.40768 -3.57473,-1.1359 0.68199,-6.13854 2.07887,-11.1503 0.0455,-8.6363 v -7.08265 l 1.00226,-1.9377 v -2.47224 l -1.00226,-3.34087 1.20272,-3.40769 -1.87089,-3.00678 -5.54585,-7.2831 -8.35217,-8.41899 -7.48354,-5.0113 -9.55489,-3.40769 -11.96031,-0.53454 -12.2944,1.87089 -10.69078,5.21176 -6.28083,5.47902 -3.80859,6.01357 -3.942229,7.81763 -0.935445,8.01809 0.200453,6.5481 2.605881,6.81537 1.67043,1.5368 0.20045,2.33861 1.5368,3.67496 -1.13589,1.06907 0.0668,0.53455 1.20272,0.66817 0.33409,1.06908 -1.20272,1.67043 -0.60135,2.80633 -1.00226,6.1472 0.26726,3.00678 -3.073596,1.20271 -8.753076,2.07134 -7.015826,0.66818 -9.955789,-2.20498 -2.271792,0.13364 -1.46998,0.80181 -2.873148,0.93544 -3.942225,1.40317 -4.209497,1.60361 -6.815373,-0.46772 -6.481286,-0.4009 -5.545841,0.33408 -4.877671,1.40317 -4.944485,3.27405 -8.753077,4.34313 -3.407686,4.00904 -1.670434,5.94675 0.267269,2.53906 2.338608,2.07134 6.280834,4.54358 11.358954,3.54132 40.624968,7.34991 9.421252,1.06908 4.677217,1.60362 8.95353,2.27179 5.47902,1.80407 2.69243,1.83065 3.40179,0.51972 3.63802,0.85044 5.29167,0.0472 5.90587,-0.7087 1.46466,-0.8977 0.51972,-0.85044 v -0.37798 l 3.54353,-0.18899 1.70089,-1.32291 0.94494,-2.17337 -0.33073,-2.83482 2.36235,-1.03943 1.18118,-3.77977 -0.0472,-1.70089 -1.55915,-1.37016 4.11049,0.89769 3.16555,0.18899 1.08668,-0.61421 0.94494,-1.08668 0.54334,-1.77177 -1.5119,-1.60639 -4.96094,-1.96076 -1.25205,0.0236 -0.54334,-1.25205 5.05543,-2.26785 4.67746,-2.71671 5.24442,-4.84282 3.42541,-3.59077 3.35986,-5.69408 1.46998,-2.47224 1.46998,0.0668 h 3.74177 l 3.34087,-2.73952 2.73951,-3.80859 2.6727,-5.21175 0.33409,-4.34313 -0.20046,-4.07586 -0.53453,-3.94223 -3.20724,-0.80181 -2.47224,2.27179 -2.53906,1.93771 -2.73952,2.20497 -3.27405,1.40317 -2.80633,-2.80633 -4.20949,-4.40995 -3.67496,-4.34313 -5.81311,-5.0113 -10.82441,-7.21628 -3.87541,-1.80407 -7.95127,-1.73725 -7.95127,-0.86863 h -6.08038 l -1.60362,3.40769 -1.26953,3.80859 -1.1359,3.54132 3.0736,0.60136 1.80407,1.00226 1.20272,1.5368 0.20045,0.4009 2.53906,2.13816 -1.67044,1.46998 -3.54132,-0.86863 -1.67043,0.66818 0.46772,1.46998 v 1.20271 1.87089 l 0.33409,1.00226 1.26953,0.46772 1.40316,0.66818 2.40543,-0.13364 2.20497,-0.33409 1.00226,-0.4009 0.0668,-2.00452 -2.93997,-3.00678 1.60362,-2.2718 0.80181,0.13364 0.46772,0.66817 0.73499,2.07134 0.13364,1.87089 0.0668,2.6727 -0.66818,2.00452 -1.20271,3.40768 -1.80407,4.00904 -1.20271,3.14042 -1.26953,3.94223 v 2.07134 l 1.5368,1.80407 2.07134,1.06907 1.06907,0.46772 0.93545,0.86863 0.80181,0.86863 0.46772,1.46998 -3.80859,-0.20045 -1.5368,-0.53454 2.13815,2.87315 0.0668,0.8018 -0.13363,3.74178 1.13589,0.93544 5.27857,0.80181 3.14042,-0.86863 5.67948,-1.46998 2.53906,-1.60362 1.40316,-0.93544 -0.4009,-0.93544 -1.9377,0.4009 -3.8086,0.46772 -6.01356,0.20045 -3.14042,-0.13363 -1.46998,-0.93544 1.67043,-2.47225 v -1.40316 h 3.00679 l 1.67043,-1.5368 2.6727,-1.33635 1.00226,-1.9377 -0.26727,-3.34087 -1.5368,-2.20497 -0.46772,-3.27406 -0.40091,-4.34313 v -3.0736 l 0.13364,-1.67043 1.60362,1.13589 2.40542,1.06908 4.2095,0.0668 2.53906,0.33408 3.00678,-0.93544 1.20271,-1.13589 0.86863,-1.20272 -0.60136,-1.80407 -2.07134,-1.20271 -2.67269,-1.13589 -3.80859,-0.60136 h -2.40543 l -2.00452,2.00452 -1.80407,2.60588 -1.33635,-3.14042 v -2.60588 l 0.26727,-2.40542 4.27631,-0.80181 6.01357,0.13363 6.5481,1.93771 4.6104,2.47224 2.80633,1.06908 4.87767,3.27405 3.87541,2.53906 1.20271,5.07812 2.27179,6.01357 2.27179,2.20497 -0.60135,2.87315 1.40316,2.00452 3.67496,1.5368 -1.58241,6.23869 -0.28349,4.06324 -0.85044,4.25223 -0.85045,4.34673 -0.28348,4.06324 -0.75595,4.25224 -0.66146,11.0558 0.47247,2.07887 8.03199,1.32292 6.99256,1.32291 9.35491,1.98438 8.69346,2.17336 19.18229,4.25223 z"
       id="path4031"
       inkscape:connector-curvature="0" />
  </g>
</svg>
